<mxfile host="app.diagrams.net" modified="2024-05-09T14:27:11.812Z" agent="Mozilla/5.0 (Windows NT 10.0; Win64; x64) AppleWebKit/537.36 (KHTML, like Gecko) Chrome/122.0.0.0 Safari/537.36" etag="juXhID9uOS6uFIHr8BRm" version="24.3.1" type="device">
  <diagram name="Page-1" id="KzzMafcafxyx_MQa5AAS">
    <mxGraphModel dx="2217" dy="747" grid="1" gridSize="10" guides="1" tooltips="1" connect="1" arrows="1" fold="1" page="1" pageScale="1" pageWidth="827" pageHeight="1169" math="0" shadow="0">
      <root>
        <mxCell id="0" />
        <mxCell id="1" parent="0" />
        <mxCell id="qgjDptoT8J-tReu_QaIb-2" value="" style="shape=image;verticalLabelPosition=bottom;labelBackgroundColor=default;verticalAlign=top;aspect=fixed;imageAspect=0;image=data:image/png,iVBORw0KGgoAAAANSUhEUgAAAsgAAADWCAYAAADM6HS0AAAgAElEQVR4Ae2di5GsIBBFjYuAjMdoTMZg2Go+CgiIjuOoe17Vq3VUoPs06hVb7DT/IAABCEAAAhCAAAQgAIGZQDcvsQABCEAAAhCAAAQgAAEIaAQynQACEIAABCAAAQhAAAIBAQRyAINFCEAAAhCAAAQgAAEIIJDpAxCAAAQgAAEIQAACEAgIIJADGCxCAAIQgAAEIAABCEAAgUwfgAAEIAABCEAAAhCAQEDguQJ5GrTqOq2GKXCHRQhAAAIQgAAEIAABCHxGoBtUp7uu8l/1eryjBkUgfxZ5SkMAAhCAAAQgAAEIZAnYEWQjNpVeD8ZOeuyV7rrctmx9rIQABCAAAQhAAAIQgMCjCWwIZOvb2He668dHO4rxEIAABCAAAQhAAAIQaCHQJJCnQelODdn6pnHQfZqmoZQetvIypjEpp3QvZVzqhEn7WLU56j5NB9kQ7sZ2U8aOgk9Db3KXfVqJ6gd9xwySLGxWQgACEIAABCAAAQh8nUCTQC6OII+9Tb8Yp0hkTtOoB0nNUAXx6coZQexdnCYt+dCqFwHbltJRtMvX6f+6FBIlQl5s8orYtVm005fnLwQgAAEIQAACEIDAvyFQF8iTz0Hu9SrBopi3vLDLC1gZBS4JYCuSW3Oe8/Uv7c9LblRaZUeb7ah0dtNcAQsQgAAEIAABCEAAAv+FQCCQyzNZ9Ou397RJXdhSlUaYxuK6lq5hoPtRaT/KW4nEPoFcEuXajFxvuVIxg00QgAAEIAABCEAAAi8iEAjkvIA06RImNSEWukacpvnA2d9xvZuitmFk2vPfrMvvuFGnpHYgkD0s/kIAAhCAAAQgAIH/TWBTIHs8Zr7kQEU2i1Nfgfu7WW5DzIbVbdbld96oE4HsQfEXAhCAAAQgAAEIQKBZIK9SI0wqRB+9nNeCc1VPWogUi5QIvyEAAQhAAAIQgAAELiTQLJDXo7Vu1olMfnLd/l+9pBeneoQ2MoIc0mAZAhCAAAQgAAEI/G8CDQLZz2SREZhuLmOZS3ic505zQGUGDDPncOZT1X6UOJwr2del1NemeStpeQTy/z4I8B4CEIAABCAAAQiEBDqTW5x9uS6Y1UJlRO5cixPCycdClOr1MIzlFIzqh0IyYlxnPhKStTt+mXDlX/jxESPUQz/zH0OZXWUBAhCAAAQgAAEIQOD1BOwI8p3c3Hih7k6mYgsEIAABCEAAAhCAwPsI3E8gH3z5732hwSMIQAACEIAABCAAgV8QuJVAnsZBq445iX/REWgTAhCAAAQgAAEIQMAS+J1ATvN/JZ9Y8pYbvqBH8CAAAQhAAAIQgAAEIPAtAr8TyN/yiHohAAEIQAACEIAABCDwAQEE8gfwKAoBCEAAAhCAAAQg8D4CCOT3xRSPIAABCEAAAhCAAAQ+IIBA/gAeRSEAAQhAAAIQgAAE3kcAgfy+mOqxV7pTQ/kjLS/0GZfeT4B+/f4Y4yEEIACBuxBAIN8lEmfY4b9OiDg+gyZ13IXAm/v1NOjefYVUvj46yiw+4m/XacWUPnfpgdgBAQj8QwII5LcEnYvqWyKJHyGBV/frUAhP5smPzAPfiTjux5ACyxCAAAQgcDEBBPLFwGkOAhCAAAQgAAEIQODeBBDI944P1kEAAhCAAAQg8BoC9mmRPCniadG9g/pPBLJ9lOk7pPm76xHmpAf1jMee09hr1Sndm2TGizvfZD8Vbviq4eLGX9KcY/id/NPgOHhYfH7ary/oWu/y78R+dvB4eBfPCzrgg5sYeys0u041fon3xP75MTexpdevSqiaRj0oZcS/1QJf/kJy8B7H3N5J+udagRx9XnrdmUWEGgfdnVV7h9/XS80BtUsgS/1WJMvnsE9iv8/ozb3dXanYN47mxR/JY/zFl7unwc6isWkyO6wJHBQE64oqa+Q4fIxAvk+/rhD9YNOL/Tujn+0+Hh7C0/i1vgZ+0JH+eVERmjt5ntE/P6Hu9NC73jcQ7aH0EIqkadRK1n1DjHiGQ3CLMdlzwBmDTNcKZNeZRKAKsNJF+tsC65hAtsYb2+SO7xvB/uBgM0wjQewuFLtvBPYbYZmkNzfu8dFXjor9NlIiIPDrC0NgytbiL/v1lm1nbH+1fz/oZ4/hiUA+4/AJ6nioQL7g+hxA+vqiDHJmXZL+fvrsWu7JfkFjyLSghU3NHH4nkAf7mCMH884CuZnsP97x2/H7x2jPcf0HwuUcw6nlUQToZ+VwIZDLbA5teaBAPuTnjQuZPt0Xn1oXxfNRlzaOIdEhn44i/1AgT1rLCbRbA/22wJJRhi6nzDOBmiSfpldahekf6SOETLnjq9zjgTnNREbbe/PIYquDjUMf29kpM13UVwa7p8lwCVNiVD/oadJ6HT97M2Tzg5LcZNMHltFnCYsZBcrc+uX9s20K71K5aVzmmvX2Wqblm7Rr4xfw8XHf6J+GsdnX3iVPEntf1kwTVvlQjBcuqxgq3YePqo5DyJS8d7/+iKd46+dqnmPg3gMwJ3HXvzNpLfvOL0E/SevKHEeZIOxe9RGXw/0s8NPz3DgevGO5Y72rnK8/8s83uuPv0t5yzvPnpPlvYaTNXLc8jzlvNTmuKimA+fNnPg1vsfPA+UV4HDwedqBMdpU+E48Yxrwy84of7p+26T08vbH7jnd3LTUxv38cTJ+pHKcmHpXtnlHz3waBXMpSaG3jtwJZa/vyWyKGDOj0AtDqUcN+zYEyFx0RmYMeRfm5f3ISFjHy6d2Jr2/56y4McoJcmtPyw3xFrCs8vtA270dlxI15WaVy0lza3rHkLvomx3m2c9Kj5B7LC4LuS36rGv0JabVBVljf5eVCuRGI2dqcapv/PTeo5WRjP7IgYsSWj8uJaJZUHkmJWcpJPnl4IT3vmD0avxhIc/90Jwhz8xb2GRG+ckNXuNCaG1Ol1i9z+nLnAXGOHeXyi37tbob38kxfjHUsVW9fmk1OcZbL0fNL9Tiy59RTQ/jjftZ8PDiekv8YHe1ukKN4PBz1Lz5s9/1ybWb7xVZNxk85p8lja3tT6/3Nszp4HB3l4uIQvSjecjxs+V3dLueYWCBr8/JWJR3SHEdHzoMHeTouu/XEQ+KwJZC3tlfDm92Y0wp+R3cNnG8k/fp9f38ukKUTy6wL4YniNgK5wvIrNvoTX7ZdG/D1ha+0PqjEnAgqI4rBrtuLeSE6lzM+WHE2r/MLzg7/M/7rRJTcLasheKvXdfQovzop6d9iTgShj5G/eMSl5Jdtc810vWfTmkPxW9ecv8it97PHTml2lYpvLkZ5vyvlMiY0rTrE5ep+LaNe7sY3C6bERdbH56+Fieu7xe3LnumS77vpevO7ehx9SyD/rp81HQ+Z60jKrljPobinte/83WBvsUZ3/La9MP7BcXSIy3eOhyKLeUPcrh0Y2rjmHToPfsBztnW9UD3eHxIH40P23Gn93dq+ptKwxsUwHBw0I/sygGkGgT6bIeT3Atk9Gg9THqqdpYHZ1i7FE+VWwXD7xkUq3LV92V2Eh3gEpFredJB1mkpcpuGgjgsUf/nYlEWnTXXIPtqoMnO+By+jGiOcf+nq2MBc2cl8rrdyvMZVnPLrQPwy7Tb3z42LbDElpxqHLwgsfyNy435twnCApz8eMmG0q0z/LQnoYik5iIovMVe3uadyp/b7A1yMZzUfdtjZcjw0XXyNH5kL5lH/KuHb3LTRZrW86VMZP3KF3L6187WfoWnVZzZszJ1fvnY85HyL1sm51x5n3oa6z0Z4lI+xUv/8hGdkb/Kjdqw8JA5bx2B2u/Gtkm40pxRVzqGrad7cLBob3JIIZH/eQiCnI3m+g2ctPmFlywnXN7POM5JgLo9h/X7n/bW5vVE+afIYLWyrlZX4nKYfhPW0LrewK9pUOwl4EZUo4WJdicEr/044OJImGn/ui1+u0hbGptyGj7kLmClXjcM3BLK0uo/L4bjngLauO8BzM1YbdR46v1wdvw0fvt3PNhn7QZb5Ylq74GYutEf9a+1Xuf022swVmddJ/BsfHX90HG3YmIv7Zqw26px93L1gBbKZHav1ic2B4+gjntJPV+8JNeiJDWZ3iYNhs7rLWgK52TeWXc9Z2nGclBq8iUBeXuySu77WTlhyamt9W6Dc41H3glx8NzppeSkqO0q61fjB7aVc4lZW4jMC+SD8E4qV4peruq1/+pSAzAXfVZo7cZpNBy4MOTvPWFficnW/Nr5ceiH64PxydfwOcDmzn7UcDy37FPvrUf+KFTZs2GizWsOOC/9Hx9GGjbnzy2YcNuqs+l3daJ/eyTVuPqdU9z82gnyc5wfH+wazu8Rhi81m39iK187tW/a0VHcbgewf85gO/uUPTTQFausktHGRaoG/d59swJ2dsYBPa/6PKRYu3SEZkU7JXPk7G7+MAU39U8odOHGa5jb6bu6EmzHztFVZLhf3a+PMAZ5Z20Myxo/MTYzzr9g9azGqbSs9Gg5t2rt8gItp4iQ7m44Hx7N+Hiw4ftS/QnVNqzfarNbhfC32nbBwE5fC9WHDxtx54vDxENp8aHlJsZDi3o5qfzjSP4/y3IpZzZanxMHYWUr9uTrl8Zzr/40Esruj63o93EAg+wMsf6z6u8FkyrL8zs1r5YRTG+XN22RtqZXzOYvVk0WzlcuderaIORFUXtIrPBo0vmVn6XCst17SS17QE9vMhTWzPrTbznJxThyPxS+0xi43CQLZ9cCJ07RQOxl/QWAd43J1vz7KM74wx9F0fTfzyDd/LPvSrlxpJh93sc0ezzKzS/Y48nUf+PvjftZ2PDT0l5LrR/0r1deyfqPNahUu/k0C2X0B9tD1YcPGnEC26ZKZG0LjUPl4qPrbtHF9HPpjLHucSJ2HzoMN/czVG7brbcm7snG8PygOcqxm+1rtnJWH8sFax7OS7tFa+b0EshM1ta/stTpW26/phGs6pQQ7PA3JVGZ2vtlv2CgnHJPfLGIwPLrk2j1WpouS/F0R1ysR6ew9e5o3Y4trb7bTT0VXmebN5RmHn9acp2ozb5zWprET0R1P17aULd+1GqbhlF2mY9hp3uz0aJVpgGqdKLPtePziypr6pxQ5dOI8emGIbdzz6ziXi/v1JzxFBIef13RTENo3qTOC4aPzixfB88EnnWF+tCz9+oRrwxLiT7iURP6OG7H248H3l3haTuOITJVpzt2Z4/2ofwuhQ0vrc5OfftJOlxl2p6iBXQJZSnou6ZzHG9eHo1yMfTuPh8jBIz/WAllqEWEaXm+imp2QjdYFPyQ++ePoAM9PjvenxUHemQo6r50WN3MODFgfXZyCdqQOrwmKMd/Z0LUC2XWSeUJ0N6VXeJr3Uy2dl99rLyZRm9mXOTIiK3070kwd4k6w5iRgXwbJ3jHtDITsLgekCPJxkA9byEnSv2wiLwVmTuxJG+sXAK7/UIj0V3O37GxfsZnnLna+uRcQ/YuaxufCRTXnn3zYIuo/CRP5aQ7Q8EMvLo6RoMmU27vqWPyO9U9zcZ37RzJiH/TNmOe6rTA+Ydxs38scE3uhPKRfH+MZwEj7tZ8XuXZx++T8krY3H0f2PBLHPbBz5+IxLp/0s3VZ2xf9udD/LfVNL/r8fvav+TBQ5lxxzL+dEIu7rz+2JB81yZ7TctfO8PiX5cJ50zefO3+uB1Xs3h9zSftny/HgDd3519xAGRaJCEvPg/PTy3UfO3Ie3MPTuHTgeH9SHOawpbGX97i2LtJz4T0Lo53vfz4O/Dcr9tRR3/dagVy3ha0QgAAE3kWgJpDf5SneQGCbAMfDNqMr9iAOTZQRyE2Y2Ok+BHweWyHX6T6GYgkEbJ5jtzVPOaAg8E8ImFFdjoefR5s4NIUAgdyEiZ3uQwCBfJ9YYEmNgP8kfT6PsVaSbRB4HwGOh3vElDi0xwGB3M6KPSEAAQjkCazyHe1Lpd/JvcubwFoI3IYAx8M9QkEcPooDAvkjfBSGAAQgAAEIQAACEHgbAQTy2yKKPxCAAAQgAAEIQAACHxFAIH+Ej8IQgAAEIAABCEAAAm8jgEB+W0TxBwIQgAAEIAABCEDgIwII5I/wURgCEIAABCAAAQhA4G0EEMhviyj+QAACEIAABCAAAQh8RACB/BE+CkMAAhCAAAQgAAEIvI0AAvltEcUfCEAAAhCAAAQgAIGPCCCQP8JHYQhAAAIQgAAEIACBtxF4iEAedd91upP/avgoBtPYa9Up3Y/TR/Xcs7D9DLPi27b3DA9WQQACEIAABCDwCALXCuTos4dKp59hHZQTwV4Md8k+Uv6wQJ702CvdqV6P46h71WkRku+TyVYkGz9v4tzYB3Etxm9aboK6Tqu0czzicMJICEAAAhCAAATeQOBageyIiWBSSsRqfjR4GgrbPhDIps1IEDvB/NLRVsOw6/VdBsptTJVWXaezyN3NU3H7G442fIAABCAAAQhA4BEEfieQB5s2kRNL3xDIj4jGi430MTWjyZmgy9MDNQxmFDmz+cVkcA0CEIAABCAAgbsR+KFAnrQ2o4b9Ks3Bi6kVLD+CPE16kHSJIBWjH8bV7uGKaRpNGRWmcSilh8wQq2nf1W0e9U+SkhG2JyPgJ47OToMZWV38sbnWPkMiSlEI7Qoc3ONfUMwsjkOvIy6dOj39ZI6p8TVJnZnXlW+aUpv5DQEIQAACEIAABL5F4LcCWWttRw69FLRuzmIq9doIZHlMn7xkJ4JZhG9p6NEIcRF9gx6npa1ptMK0lO9qbOvdS31DnK/sy5aaTE1v+l24YfBlS6Ov9kZjv39aW+GvMjcX5mXGE28Cwpimfiy/Ecg+1vyFAAQgAAEIQOB3BH4ukPU8erhACMXUsla7EedCDquIvVJ+a1RJ/KPYlhPvnRHjcZn5V8b2eduhBfuiWlZ0H2yr7J+9qci25W13I/bLLYXfsP9vZEfkSxi3cHl/G5SAAAQgAAEIQAACZxD4vUA2ujce/Y3EVOilE2zhqnBZRnyrgi/c2S9X6qyOSrvyMvpZGoH2Tez5W/K9tH6z7pJ/sr5bp7fE9TWI6LhA8Vdqv2fr11sRjkAuAmQDBCAAAQhAAAKXEbiFQDaP+oPRXy+aVhRKYs/tWBPI6zxbmXpM2dzbwmwaUt+W+C3aujK+cUU0uurLVEaW3S57/Wu1+6wbgFV7RqBb/gtjBLKPOH8hAAEIQAACEPgdgZsIZK29gJKRRL+8wnJIIC/zAssLeXG6wKSnoTy38k8EcmZEvfQyo+VzzL8i4wT61wSydnbLVHRzmwjkGQULEIAABCAAAQj8jMBtBLJ2gklGE4vi7YhANiOVoQhLWFfq9GkASYno51kCMqrUjCIvNleF+lH/XLn4hiGyQm5VzMuPu9NW0mpqNz3RvgjkCAc/IAABCEAAAhD4CYEbCWT/El6vh4MfChEhmYq5otg2uP3oa/6DJUYgX/qS3tIHZlGcTblY9jvun/V9SW9Y6pyX3M1DXUTPe1cX6nb6oghkT4K/EIAABCAAAQj8jsC9BLJLLyh+Za8y2isIcwLZzpIhucTLg3wZGTU5u/JJ48oX/axIHcwcyDLPcigUzTRvSqab+1Lw3AjvIJ9prjViBPQx/+w0b7lPbjs+X5rmrUwMgVxmwxYIQAACEIAABK4icK1AdmKu9EEM47TfJ3pxzgqnsFw48mlGJ+ePhsjLd0t6gq+zDz8QYoSx+9CHEaJSZv1C3jyKK6kG0YdJTv5QSDba9sU8eZFwCJV5bt9JRLz1wTOaP2RS8c9XtX7B78wPhfhc49C+xKfARm9/6TPk3mb+QgACEIAABCAAgW8RuFYgf8uLL9W7COQvNUC1EIAABCAAAQhAAAK3I/DvBLKI3txocS4yCOQcFdZBAAIQgAAEIACBdxNAIFfii0CuwGETBCAAAQhAAAIQeCmBfyeQW+K4zmm2o861d+Va6mUfCEAAAhCAAAQgAIH7E0Ag3z9GWAgBCEAAAhCAAAQgcCEBBPKFsGkKAhCAAAQgAAEIQOD+BBDI948RFkIAAhCAAAQgAAEIXEgAgXwhbJqCAAQgAAEIQAACELg/AQTy/WOEhRCAAAQgAAEIQAACFxJAIF8Im6YgAAEIQAACEIAABO5PAIF8/xhhIQQgAAEIQAACEIDAhQQQyBfCpikIQAACEIAABCAAgfsTQCDfP0ZYCAEIQAACEIAABCBwIQEE8kHY5mt7ajhY+vnFxr7THZ8WfH4g8QACEIAABCAAgRWBnwjk0qecu85+0ln+qmGKjZ0GrYLt4b7rZaXT4nFlH/5ytqz04djrxZa1DYNa/LP7rff50LKm4kbcepZFkT/p3u+Ti4fzdcWgyQJ2ggAEIAABCEAAAvcl8BOBnOLYNRopwqwo6rTWRrx+V3gae9WgEwk/uyXblVJFO+8w+mxtUOamIytynQCWm5Lsdq21Efy1WMxEWIAABCAAAQhAAALPIfA+gaxH3Xe9Hr8VAzd6vBrhDtozAnkQO/Li8j4CedClmxMRv2oYij4YdxlFDqLOIgQgAAEIQAACbyHwQoH83dAYQbkhwK1AnrQ2ArJfjTTfSSBnR9znUfiyyLeUXRpGaYj5u6GgdghAAAIQgAAEIPAVAs8XyEbMfXHEOMLuBOFGWsEskF0aQjravBbIVogu+ctprnL62/t7tJxkoiwpIOko8vJ7SyDLPYDY5u2JYPEDAhCAAAQgAAEIPJLASwTyd3OO58g2pFfIvqFAzo3QhuJ0rvvihciGecTYWB+kVWwLZFNPIZXkYpdoDgIQgAAEIAABCJxC4JkCOZhd4dLZIPyLaxtTZEQC2QnmcEq0SJyeEsb9laQ2mBfu+nEeWbYvIG4LZJtGks+13m8VJSAAAQhAAAIQgMDvCTxTIIcpDtHo55eBNr6UlgpkbV4cXERkKk6/bHW2+pUNxjellXk5z8/P0S6Q0zSSbKOshAAEIAABCEAAAg8g8BKBfFEO7MERZOkHXpCK9PTLS/+wQvRXOcjWjslO2xblE7cLZN7TW6LJEgQgAAEIQAACzybwfIF8Jf8jOcizfVaAykjrWiDPO1220GbDtkA29ZCDfFncaAgCEIAABCAAge8TQCDvYrx/FouoejMC3eshmEEi2n7hj7MEMrNYXBg0moIABCAAAQhA4BICCOSdmFsE4ToHeWnEbKt8ZW/Z87tL5whk5kH+bpSoHQIQgAAEIACBXxD4iUD2j+VrOberl75cekO2zJUJsLU0i5yN6Sep/T7hi4aXRt7nGodzKyfT5Llc64h1zl6335X4L0VFYxCAAAQgAAEI/EsCPxHITydtRpFT4ft0pw7Yb6aGywnnA3VRBAIQgAAEIAABCNyFAAL5SCTcKPC/Hjll9PhIz6EMBCAAAQhAAAIPIIBAPhikthzeg5U/oJj/sMgDTMVECEAAAhCAAAQgsIsAAnkXLnaGAAQgAAEIQAACEHg7AQTy2yOMfxCAAAQgAAEIQAACuwggkHfhYmcIQAACEIAABCAAgbcTQCC/PcL4BwEIQAACEIAABCCwiwACeRcudoYABCAAAQhAAAIQeDsBBPLbI4x/EIAABCAAAQhAAAK7CCCQd+FiZwhAAAIQgAAEIACBtxNAIL89wvgHAQhAAAIQgAAEILCLAAJ5Fy52hgAEIAABCEAAAhB4OwEE8tsjjH8QgAAEIAABCEAAArsIIJBbcU2DVl2n1TC1lrhwv1H3Xae78H8/Xtj+95syn7Z2/lnXQp+VvmVYPsXi+pyJqxo+ra1afuyV7tSg79i7V4Yf4HJX//5lv14FlBUQgAAE7kfg/QJ57GPhGIpIEbyq12OLKri1QI471th3unuZQDY+mdgtYngRF71e3Q6cFfcY7U9+TYMVr19pfBp1r7rniOMAQhOXm/u3u18H/rMIAQhAAALfI/B+gWzY2dHGnGacRjsynNv2PezfrfndAnkRw7O4KI6uPjPuRvglN3L+6cCpTzBEPN72qcj6GNnN5QH+zX2429Ov12xYAwEIQAAC5xL49wLZ4DSjw8vI5LmIr6/tjQJ5FkeBGJ7FRfHupiyQnxT3ppHS67vZz1t8A5dj/frn6DEAAhCAwOsJIJBdiPOi0gosP3pn/hbFWNpXJi15j5K37MtLOscwTlpSA8Jq5oukH80zj4XVXE7KN6eCaK3zvqT22d/TNOpB7JTH7N5WpYyduRKhrbJ/6IfZP0ltOG3E09cbNOhtKbexIZBXrIJ4B0I855eYIZzLbefoVdZNk4nDHAOJeT/oadLa+JnaE1Q1Dn0cv05p1Y/VfOLjcbc3kpO06fuLtzWw6bTFXVz2xS+00felrjvon0/lmJko3Uvu1la+9KF+HVrOMgQgAAEIfIMAAtlTNReq5TGnXx3+bRee7kItLz2F+c2TFc1ZYam1Ec6qF+GhdD/EAmdPKkizncZnEVODHgNDfVtF8edYha6FnLTeFqbx/g2/cjngTlwEmjmpqMGOXNxlXVGQ+jrtjU6RUWJJ9af3TUTtDHXSo+QeS19wL9Ct65D8YaXVsMrA1tMoormQX298PhB396TF3EyFfVtE7DfymI9yqcbPHmfZPnPUP8fTCGIfJMfEH8/Fl0i9j+EOpr7Mzaevm78QgAAEIPB1Aghkj9hdHMPrlN/k/+4TniWxvR5B9vXbl85k5MmvSf422Cglmu1Mqg9/1kct6+LQl521XljxpctezFYazTGtCixbpxnpVcP65cBKU/lNtr6i0HZiaS3Yy/1obsf5sScOPnZzHeGCF3PZDtrAOqxrc/koF3MAVG5wtgSyjNznDsCSf7K+lJ7lbhyK2zchsAMEIAABCPyIAALZg88JJb/N/W0Xnu5iOkzVx9xJ9XYULntxXvYUG4piaredS72rpapIdCKk6zP+lYTEqoULVjTYkot71feGOnd45gVpTcSafpeOaBvhnOMfNt4gosPdZbnme45VUD5NHQo27V48zGXLB/ekJnuYHfDP21l00MSpJKCLpdgAAQhAAAI/JoBA9gHYuDjKbu0CWfa2OaVRnqZap0745nmqHPkAABIFSURBVOWvCIwt8bt5Qd5p5zp/VXKRXU5yKspCY8W/jL3evprgi6r56o8GMZuLe00knpw+0tKnPNMQVW5duN0vl26oDsU9x8o3VBOewT6ti0e5mPqr8dsaQS6L2dwNwKadG8xaebAfBCAAAQhcSwCB7HmbkZ5SWoTdafNi6Ouq/K3lhuYEZ1pVizBqs9M9/nUvDsaCdtLyEtb6sX5ijWO2lJ3MtGHZ0bmk6DU/GwRyLu5VgdVQ5w7nWmKVi3luXa5ZqT++6fog7htiLycgcza1rDvKxdRdjR8CuYU/+0AAAhD47wQQyK4HGMGxoexaLtotHaokbkRgbH3gYy141i022ZkThmFVGyLD7hqPInu/FsEcVviL5W0xm4171fftOvd42sLMxDMdzXfxq7O28Ym69Sdxv1AgH+Yi8KvxO1cgezuLMTe8y6PSxXJsgAAEIACBnxJAIBv8Inq2L2JNwrMhVaJ0UTUCWWYtyL0jJHZuCBTfk1rsLNlg6/CjjA2fN56F2t1Gj8WTLTFbiHtFRBpuuentPPzdf62N8ShvUImxxX7pLlhrU3gyKS7RPlI2+Xz0R3Hf6H9njiD72O3n4gRyNj9esFX6xCH/Cn3IBMIdRw3nlihu/IAABCAAgZ8T+OcCedJmSjPJDS6J0iBELcJTdvdC18xFmwzxmRSLwgVTyqlhMFN3Zad5O9NOIwakvdBxmVrMzm+rVOvnjd0osts/cTeg94vFkhjairsTrUGnkHmD7SeZ7dzWwabPHZMp2cxcwsk0bzK92+Y0b3bWhZi7i2NumrdP4n5IQH6A5xMu5iYmpCIxt1PfyTR12fgd9c/cxCRzh7v+IseRTNtYmx3nA0IUhQAEIACBLxF4v0D2I3DzBP7BBzGqH+CwIin8cEN+eZ23bIXuqEcndpdy8vJbYW7aaOQ589GIYrnjdsqItBF9AZvZvoBbcRTPd0q37+Z+fv8r/gb2L/yX2M9+lmzxgtizcS9Y+pFNU2ea9lCqq2V94YMY9lsTy0djcozXL9xtfCjkQNztTd/CL8pPT1nfgUsxfv4GNh6V/9i/tD3zJMh/KASB3HIIsA8EIACBOxF4v0C+E+0NW6ywDke9NgrcZbMRSFtTjt3FWOyAwIUENkalL7SEpiAAAQhAYAcBBPIOWN/e9ZkC2aVYvPYZss8jTWeD+HZvoP5XEODm8RVhxAkIQOD/EUAg3yjmjxTIrxcACOQbHSKPMsV/sj2b7/woTzAWAhCAwP8jgEC+Qcz9zAhpruwtL6zuJa/U1tNzcm8QF0yAQDOBNA9bctdljvEHZkw1+8yOEIAABF5MAIH84uDiGgQgAAEIQAACEIDAfgII5P3MKAEBCEAAAhCAAAQg8GICCOQXBxfXIAABCEAAAhCAAAT2E0Ag72dGCQhAAAIQgAAEIACBFxNAIL84uLgGAQhAAAIQgAAEILCfAAJ5PzNKQAACEIAABCAAAQi8mAAC+cXBxTUIQAACEIAABCAAgf0EEMj7mVECAhCAAAQgAAEIQODFBBDILw4urkEAAhCAAAQgAAEI7CeAQN7PjBIQgAAEIAABCEAAAi8mcLlAHlSns58plk+zRv97PQbgxz7dvvxu/STzOPRaRW0o3Q+jNnUnlRy1MzCZRQhAAAIQgAAEIACBBxK4XCBbRqPuO6WHqUBs7HXXxQI53FPEqyoWDvf0y5M2glcNegranKZR916wJwLZlvzMTt86fyEAAQhAAAIQgAAEnkPg1gI50LIR0d0CWQS3iOOoFv9DRHCnuw8Ecr5eXz9/IQABCEAAAhCAAASeROCeAnmD4F6BPA2qIIBtQ7kUC7elPtK9YSebIQABCEAAAhCAAASeR+A2AllEb3YQN8P0kECupGxkmnCr1ikWe+ws18sWCEAAAhCAAAQgAIG7EvgXAllrn4Pc62GcojzkemAQyHU+bIUABCAAAQhAAALvI/BDgbzMQuFnr/jWCLIP2zQOuldqmS1D2VksyjnELj85mvmifaTbt8tfCEAAAhCAAAQgAIHnEPihQI5nsdiTurA3xaIUDpnFYuitYO7HnExmBLnEjvUQgAAEIAABCEDgrQTeJ5DdjBW7AuamlVtLZATyLo7sDAEIQAACEIAABF5A4DYCOWVZG1GujSCbGSvUEFS3FrnBRrs4DVpl52XeLluzc9UOKyAAAQhAAAIQgAAEbk/gnwjk0jzHLj7FeZIRyLfvwRgIAQhAAAIQgAAETibwfwRy12nVDzpONZ70NMrnp+N86IUxAnlhwRIEIAABCEAAAhD4HwQuF8iSkuBnrdj6G85qYT7mkcwmUSyfTbGY9NgrraI6lBHN4eenfdiP2unL8xcCEIAABCAAAQhA4JkELhfIz8SE1RCAAAQgAAEIQAAC/4UAAvm/RBo/IQABCEAAAhCAAASaCCCQmzCxEwQgAAEIQAACEIDAfyGAQP4vkcZPCEAAAhCAAAQgAIEmAgjkJkzsBAEIQAACEIAABCDwXwggkP9LpPETAhCAAAQgAAEIQKCJAAK5CRM7QQACEIAABCAAAQj8FwII5P8SafyEAAQgAAEIQAACEGgigEBuwsROEIAABCAAAQhAAAL/hQAC+b9EGj8hAAEIQAACEIAABJoIIJCbMLETBCAAAQhAAAIQgMB/IYBA/i+Rxk8IQAACEIAABCAAgSYCCOQmTOwEAQhAAAIQgAAEIPBfCCCQWyM9DVp1nVbD1Friwv1G3Xed7sL//Xhh+99valCLf9a10GelbxmWT7G4PmfiqoZPa6uWH3ulOzXoO/buquHf2rjzeP+X/fNb7KkXAhCAwA0IvF8gj30sHEMRKYJX9XpsUQU7L5i/jO3Yd7p7mUA2PpnYLWJ4ESW9Xt0OnBX3XwbStT0NVrx+xZRp1L3cfCCOY7w7j/fd/TNujV8QgAAEIHAzAu8XyAa4HW3MacZptCPDuW03i1WzOe8WyIsYnkVJcXT1mXE3gji5kfNPB059giHi+LZPRZq7+y12nPtit6d/3sJ0jIAABCAAgQyBfy+QDRMzWrSMTGY4PWrVGwXyLBoDMTyLkuLdTVkgPynuXx1BflTPvq+xx/rnff3BMghAAAL/nQAC2fWAvKi0AsuP3pm/RTGWdqVJS16n5C378pLOMYyTltSAsJr54upH88xjbzWXk/LNqSBa67wvqX329zSNehA7gxzfTiljZ65EaKvYFfph9k9SG04b8fT1Bg16W8ptbAjkFasg3oEQz/klZgjncts5epV102Ti4PuKiXk/6GnS2viZ2hNUNQ59HL9OadWP1Xzi43G3N5KTtBn2bbE1sOm8xfbjKGxzr3+2bBB/71vQ38L6V8uH+ueqFlZAAAIQgMBNCCCQfSDMBW55POpXh3/bhae70EpeZ6gaJnuxzwpLrY1wVr0ID6X7IRY4e1JBmu00PouYGvQYGOrbKoo/xyp0LeSk9bYwjfdv+JXLCXWipKxhGuzIxV3WFQWpr9Pe6BQZNbg07+J9E1E7Q530KLnH0hfcC3Tz/vOC5A8rrYZVBraeRhHNhfx64/OBuLsnLeZmKuzbIu6/ksd87DjSR/2budqF5uNIdvcxDN8WNXZkbiKTdvgJAQhAAAL3I4BA9jFxF//w+uY3+b/NF0xzYSyJ7fUIsq/fvnSm1qOyfocGG2XXZjt9vZm/9VHLujj0ZWetl6n/mlVezFZayzGV+G0IZDPSq4b1y4GVpvKbrI1Foe1E1tqecj+a23F+7ImDj91cR7jgRWD2jqSBdVhXy/LB46hWddW/pOAZx1FSJT8hAAEIQOAhBBDIPlA5oeS3ub/tF0wnFoZp12NnI5Cz4mMxRGwoiqnddi71rpaqItGocN11fca/LwillXGtKxpsycW96ntDna3mmYHH7enVTL9LBbsTj3Xx2yCiU1trvudYBeXT1KFg08HFY8dRtbGaf0nB9uM9KchPCEAAAhB4PAEEsg/hxsVfdtt3wbQ5pVGeplqnTvjm5a8IjC3x2zICtsfOdf6q5Ey7nORUlIXG6vwosrevLtyiir74o0HM5uJeFVENde7wqCVWnmlYbW5duN0vS/25PnUo7jlWviHXfzfu74K9Wxf3H0dS8yH/EpNaYpMU4ScEIAABCLyEAALZB9KNyK2zOf0OewXyUi5cquWGXiuQrcDt3IuDsaCdtLyEtX6sH3qSG0WezLRh54ukpN3mnw1iNhf3VwvkD+L+E4GcD3b5OPrAv6QpBHIChJ8QgAAE/hEBBLILthmR21B2Z10wS6N/l6ZY5IRh2PGrItHvGI8ie79ise33/cXfbYGcjXvV9+0693jawsz0u3Q038WvztrGJ+rWn8T9RgJZGHt2Ee9P/IsqOueGOKmSnxCAAAQg8BACCGQTKBE92/MgtwrkrZHg7IXdPaI2sxaUhrE3BIrvcy12lmywdfhRuIbPG89C7W6jx+LJlpgtxL0isgy33PR2Hv7uv9bGXBqEqcrYYr90F1cd35zE29wvKZt8Ie+juG/0P+n3kRjPGtW+8shx9JF/iWktx1FShJ8QgAAEIPASAv9cIE/aTGkmucElURoEuvWCaUaC/Vy0yRCfeTRcEONWEAxm6q7sNG9n2mnEjuSnho7L1GJ2flulWj9v7ISa2z9xN6D3i8WSQN6KuxOtQaeQeXXtJ5nt3NbBps8dkynZZK7rdJo3md5tc5o3Vy6ywsUxN83bJ3H/gUA2+fARF+to8Tj6xL+IISPICQ5+QgACEPhXBN4vkP0InJ/4P/lbnCvWjT6GH27IL6+nc7NCd9TjYMXuUk5efivMTRu9pJf5aESxnBVzSxvLh0nidWs7Ze5WI/oCJrN9Abfi6KY/VNy+m/v5/a/4G9gfc7B8Zj9LtnhB7Nm4Fyz9qLSpM017KNXVsr7woZDRfyjE2ZFjvH4hbeNDIQfibm/6gr4V+p6yDre1+F7Y5+hxdKxff3AcFexnNQQgAAEIPJfA+wXyg2JjBcG9xmCb8BmBlJvyrak0O0EAAhCAAAQgAIFbEUAg3ygczxTIDbmwN2K83xSXj+0/A76/AkpAAAIQgAAEIPAwAgjkGwXskQL59aPHCOQbHSKYAgEIQAACELiEAAL5Esz1RvzMCGmu7KkvgtVNaN/qXoJKbT09J7fdIvaEAAQgAAEIQAACpxJAIJ+Kk8ogAAEIQAACEIAABJ5OAIH89AhiPwQgAAEIQAACEIDAqQQQyKfipDIIQAACEIAABCAAgacTQCA/PYLYDwEIQAACEIAABCBwKgEE8qk4qQwCEIAABCAAAQhA4OkEEMhPjyD2QwACEIAABCAAAQicSgCBfCpOKoMABCAAAQhAAAIQeDoBBPLTI4j9EIAABCAAAQhAAAKnEkAgn4qTyiAAAQhAAAIQgAAEnk7gXgI5/EqbGp7OFvshAAEIQAACEIAABB5IoBtUp7OfDe7S9b0eL3LQfHoZgXwRbZqBAAQgAAEIQAACEAgJuBHkUfed0sMUbgqWx153HQI5IMIiBCAAAQhAAAIQgMBLCewSyCX9fDYbRpDPJkp9EIAABCAAAQhAAAKtBNoEcqY2I2JNGoYdeZ6GXqsgLUP1g64K6mnSQ6+i9A5TZtIagZwBzioIQAACEIAABCAAgUsIFAWy5Cb3W0nH5qU6pZXkMatBT14Ri/j163JujCKmle5HX0B2mvRoRLbSvQhncpBz5FgHAQhAAAIQgAAEIPBlAicI5E6rrJKWvOacyN7Id/YzWSCQvxx6qocABCAAAQhAAAIQyBEIBHI6a0VO3CZVuBHk0st9uVFokz6RFdRL3WNvR6SXNSxBAAIQgAAEIAABCEDgGgKBQI5nsciJ25VJBwSy1KtKito1QA7yijQrIAABCEAAAhCAAAQuIoBAvgg0zUAAAhCAAAQgAAEIPINAUSCn5mdHlA+MIJNikZLlNwQgAAEIQAACEIDAnQhcLpC15iW9O3UAbIEABCAAAQhAAAIQiAn8QCBrrZnmLY4CvyAAAQhAAAIQgAAEbkOgk9SJLvjAR205nHxiVS6cls18mjqoN9zmXZ/G+odCnE1bL/T56vgLAQhAAAIQgAAEIACBMwi4EeQzqqIOCEAAAhCAAAQgAAEIPJ8AAvn5McQDCEAAAhCAAAQgAIETCSCQT4RJVRCAAAQgAAEIQAACzyeAQH5+DPEAAhCAAAQgAAEIQOBEAn9dgUFEcU9v6wAAAABJRU5ErkJggg==;" vertex="1" parent="1">
          <mxGeometry x="-200" y="40" width="499.07" height="150" as="geometry" />
        </mxCell>
      </root>
    </mxGraphModel>
  </diagram>
</mxfile>
